<svg xmlns="http://www.w3.org/2000/svg" xmlns:xlink="http://www.w3.org/1999/xlink" width="800" height="800.001" viewBox="0 0 800 800.001"><defs><linearGradient id="a" x1="0.5" x2="0.5" y2="1" gradientUnits="objectBoundingBox"><stop offset="0" stop-color="#f0357c"/><stop offset="0.5" stop-color="#f154ff"/><stop offset="1" stop-color="#777dff"/></linearGradient></defs><g transform="translate(-99.999 -99.999)"><path d="M-7125,800a406.368,406.368,0,0,1-40.9-2.065,400.941,400.941,0,0,1-39.716-6.061c-12.886-2.637-25.783-5.953-38.334-9.857-12.409-3.86-24.773-8.385-36.75-13.451a400.031,400.031,0,0,1-67.946-36.88,402.825,402.825,0,0,1-59.2-48.844,402.877,402.877,0,0,1-48.844-59.2,400.029,400.029,0,0,1-36.88-67.946c-5.065-11.975-9.59-24.339-13.451-36.75-3.9-12.55-7.22-25.448-9.857-38.334a400.967,400.967,0,0,1-6.061-39.716A406.311,406.311,0,0,1-7525,400a406.312,406.312,0,0,1,2.065-40.9,400.97,400.97,0,0,1,6.061-39.716c2.637-12.886,5.954-25.783,9.857-38.333,3.86-12.411,8.386-24.776,13.451-36.75a400.039,400.039,0,0,1,36.88-67.946,402.892,402.892,0,0,1,48.844-59.2,402.817,402.817,0,0,1,59.2-48.844,400.036,400.036,0,0,1,67.946-36.88c11.977-5.066,24.341-9.591,36.75-13.451,12.548-3.9,25.446-7.219,38.334-9.857A401.008,401.008,0,0,1-7165.9,2.065,406.375,406.375,0,0,1-7125,0a406.368,406.368,0,0,1,40.9,2.065,401.008,401.008,0,0,1,39.716,6.061c12.889,2.637,25.786,5.954,38.334,9.857,12.407,3.859,24.772,8.385,36.75,13.451a400.038,400.038,0,0,1,67.945,36.88,402.86,402.86,0,0,1,59.2,48.844,402.892,402.892,0,0,1,48.844,59.2,400.087,400.087,0,0,1,36.879,67.946c5.065,11.976,9.591,24.34,13.451,36.75,3.9,12.548,7.219,25.445,9.856,38.333a401.143,401.143,0,0,1,6.062,39.716A406.5,406.5,0,0,1-6725,400a406.5,406.5,0,0,1-2.065,40.9,401.139,401.139,0,0,1-6.062,39.716c-2.638,12.889-5.954,25.786-9.856,38.334-3.86,12.41-8.385,24.775-13.451,36.75a400.078,400.078,0,0,1-36.879,67.946,402.877,402.877,0,0,1-48.844,59.2,402.844,402.844,0,0,1-59.2,48.844,400.054,400.054,0,0,1-67.945,36.88c-11.979,5.066-24.343,9.592-36.75,13.451-12.55,3.9-25.448,7.22-38.334,9.857a400.941,400.941,0,0,1-39.716,6.061A406.361,406.361,0,0,1-7125,800Zm0-790a396.289,396.289,0,0,0-39.875,2.013,391.066,391.066,0,0,0-38.724,5.91,388.044,388.044,0,0,0-73.207,22.725,390.059,390.059,0,0,0-66.248,35.958,392.865,392.865,0,0,0-57.719,47.622,392.822,392.822,0,0,0-47.622,57.719,390.013,390.013,0,0,0-35.958,66.247,388.04,388.04,0,0,0-22.725,73.207,391.048,391.048,0,0,0-5.91,38.723A396.211,396.211,0,0,0-7515,400a396.211,396.211,0,0,0,2.014,39.875,390.9,390.9,0,0,0,5.91,38.724,388.04,388.04,0,0,0,22.725,73.207,390.043,390.043,0,0,0,35.958,66.247,392.813,392.813,0,0,0,47.622,57.719,392.844,392.844,0,0,0,57.719,47.623,390.071,390.071,0,0,0,66.248,35.958,388.059,388.059,0,0,0,73.207,22.725,390.979,390.979,0,0,0,38.724,5.91A396.3,396.3,0,0,0-7125,790a396.273,396.273,0,0,0,39.875-2.014,391,391,0,0,0,38.724-5.91,388.055,388.055,0,0,0,73.207-22.725,390.057,390.057,0,0,0,66.247-35.958,392.839,392.839,0,0,0,57.719-47.623,392.845,392.845,0,0,0,47.622-57.719,390,390,0,0,0,35.958-66.247,388.037,388.037,0,0,0,22.725-73.207,390.955,390.955,0,0,0,5.91-38.724A396.1,396.1,0,0,0-6735,400a396.1,396.1,0,0,0-2.014-39.875,390.968,390.968,0,0,0-5.91-38.723,388.038,388.038,0,0,0-22.725-73.207,390,390,0,0,0-35.958-66.247,392.824,392.824,0,0,0-47.622-57.719,392.819,392.819,0,0,0-57.719-47.622,390.044,390.044,0,0,0-66.247-35.958A388.037,388.037,0,0,0-7046.4,17.923a391.066,391.066,0,0,0-38.724-5.91A396.272,396.272,0,0,0-7125,10Z" transform="translate(-6625.002 900) rotate(180)" fill="url(#a)"/><path d="M-7125,760a365.788,365.788,0,0,1-36.808-1.859,360.9,360.9,0,0,1-35.745-5.455,358.178,358.178,0,0,1-67.576-20.977,360.051,360.051,0,0,1-61.151-33.192,362.573,362.573,0,0,1-53.279-43.959,362.572,362.572,0,0,1-43.96-53.279,360.053,360.053,0,0,1-33.192-61.151,358.235,358.235,0,0,1-20.977-67.576,360.88,360.88,0,0,1-5.455-35.745A365.762,365.762,0,0,1-7485,400a365.758,365.758,0,0,1,1.859-36.808,360.869,360.869,0,0,1,5.455-35.745,358.239,358.239,0,0,1,20.977-67.576,360.06,360.06,0,0,1,33.192-61.151,362.553,362.553,0,0,1,43.96-53.279,362.57,362.57,0,0,1,53.279-43.959,360.042,360.042,0,0,1,61.151-33.192,358.19,358.19,0,0,1,67.576-20.977,360.93,360.93,0,0,1,35.745-5.455A365.789,365.789,0,0,1-7125,40a365.789,365.789,0,0,1,36.808,1.859,360.94,360.94,0,0,1,35.745,5.455,358.2,358.2,0,0,1,67.576,20.977,360.028,360.028,0,0,1,61.15,33.192,362.6,362.6,0,0,1,53.279,43.959,362.59,362.59,0,0,1,43.959,53.279,360.019,360.019,0,0,1,33.192,61.151,358.2,358.2,0,0,1,20.977,67.576,360.988,360.988,0,0,1,5.455,35.745A365.768,365.768,0,0,1-6765,400a365.773,365.773,0,0,1-1.859,36.808,361,361,0,0,1-5.455,35.745,358.2,358.2,0,0,1-20.977,67.576,360.012,360.012,0,0,1-33.192,61.151,362.593,362.593,0,0,1-43.959,53.279,362.6,362.6,0,0,1-53.279,43.959,360.038,360.038,0,0,1-61.15,33.192,358.2,358.2,0,0,1-67.576,20.977,360.932,360.932,0,0,1-35.745,5.455A365.788,365.788,0,0,1-7125,760Zm0-710a355.658,355.658,0,0,0-35.786,1.807,350.891,350.891,0,0,0-34.752,5.3,348.255,348.255,0,0,0-65.7,20.394,350.037,350.037,0,0,0-59.453,32.27,352.563,352.563,0,0,0-51.8,42.738,352.492,352.492,0,0,0-42.738,51.8,350.02,350.02,0,0,0-32.27,59.452,348.2,348.2,0,0,0-20.394,65.7,350.868,350.868,0,0,0-5.3,34.752A355.559,355.559,0,0,0-7475,400a355.561,355.561,0,0,0,1.807,35.786,350.875,350.875,0,0,0,5.3,34.752,348.2,348.2,0,0,0,20.394,65.7,350.019,350.019,0,0,0,32.27,59.452,352.51,352.51,0,0,0,42.738,51.8,352.527,352.527,0,0,0,51.8,42.738,350.042,350.042,0,0,0,59.453,32.27,348.239,348.239,0,0,0,65.7,20.394,350.94,350.94,0,0,0,34.752,5.3A355.666,355.666,0,0,0-7125,750a355.651,355.651,0,0,0,35.786-1.807,350.952,350.952,0,0,0,34.752-5.3,348.215,348.215,0,0,0,65.7-20.394,350,350,0,0,0,59.453-32.27,352.544,352.544,0,0,0,51.8-42.738,352.518,352.518,0,0,0,42.738-51.8,349.979,349.979,0,0,0,32.27-59.452,348.2,348.2,0,0,0,20.394-65.7,350.875,350.875,0,0,0,5.3-34.752A355.534,355.534,0,0,0-6775,400a355.531,355.531,0,0,0-1.807-35.785,350.868,350.868,0,0,0-5.3-34.752,348.2,348.2,0,0,0-20.394-65.7,349.98,349.98,0,0,0-32.27-59.452,352.535,352.535,0,0,0-42.738-51.8,352.519,352.519,0,0,0-51.8-42.738,350.016,350.016,0,0,0-59.453-32.27,348.222,348.222,0,0,0-65.7-20.394,350.9,350.9,0,0,0-34.752-5.3A355.643,355.643,0,0,0-7125,50Z" transform="translate(7625 100)" fill="url(#a)"/></g></svg>